<?xml version="1.0" encoding="UTF-8"?>
<svg id="Layer_2" xmlns="http://www.w3.org/2000/svg" viewBox="0 0 905.45 409.95">
  <defs>
    <style>
      .cls-1 {
        fill: #732f14;
      }

      .cls-2 {
        fill: #252122;
      }

      .cls-3 {
        fill: #732e14;
      }

      .cls-4 {
        fill: #c2af71;
      }

      .cls-5 {
        fill: #743015;
      }

      .cls-6 {
        fill: #222021;
      }

      .cls-7 {
        fill: #723016;
      }

      .cls-8 {
        fill: #c3ae72;
      }

      .cls-9 {
        fill: #c2ae73;
      }

      .cls-10 {
        fill: #242122;
      }

      .cls-11 {
        fill: #743521;
      }

      .cls-12 {
        fill: #74361e;
      }

      .cls-13 {
        fill: #742e14;
      }

      .cls-14 {
        fill: #c2ae72;
      }

      .cls-15 {
        fill: #722f16;
      }

      .cls-16 {
        fill: #272425;
      }

      .cls-17 {
        fill: #232021;
      }

      .cls-18 {
        fill: #252123;
      }

      .cls-19 {
        fill: #c7c4aa;
      }

      .cls-20 {
        fill: #732f15;
      }

      .cls-21 {
        fill: #262525;
      }

      .cls-22 {
        fill: #896354;
      }

      .cls-23 {
        fill: #732e13;
      }

      .cls-24 {
        fill: #8a6d54;
      }

      .cls-25 {
        fill: #742f15;
      }

      .cls-26 {
        fill: #743b2f;
      }

      .cls-27 {
        fill: #231f21;
      }

      .cls-28 {
        fill: #742e13;
      }

      .cls-29 {
        fill: #732f16;
      }

      .cls-30 {
        fill: #c2af73;
      }
    </style>
  </defs>
  <g id="Layer_1-2" data-name="Layer_1">
    <g>
      <path class="cls-28" d="M257.72,214.36c2.14,2.32,2.7,6.84,1.07,9.77-2.19,3.94-4.97,7.22-9.8,8.02-1.92.32-3.59,1.32-4.88,2.75-2.75,3.01-5.86,5.59-9.16,7.96-1.37.99-1.04,2.31-.33,3.47,2.6,4.26,2.34,8.6.96,13.2-.63,2.08-1.72,3.28-3.61,3.97-1.59.58-3.24,1.02-4.78,1.69-1.41.62-1.88,1.41-1.84,3.38.08,4.07-1.22,8.05-4.58,10.88-.92.78-1.91,1.46-2.53,2.52-3.46,5.91-8.86,9.96-13.85,14.39-3.16,2.81-7.69,3.46-11.19,3.32-5.26-.2-10.08.91-14.98,1.98-3.1.67-4.91-.52-6.56-2.72-.66-.88-1.3-1.77-1.98-2.63-.67-.84-1.21-1.42.19-2.29,1.22-.76.76-2.2.14-3.24-3.06-5.1-4.63-11.08-9.28-15.23-1.92-1.72-2.68-4.19-3.14-6.67-.77-4.11-2.17-8.09-2.37-12.31-.12-2.35-1.03-4.4-2.29-6.39-2.58-4.04-4.95-8.2-7.52-12.25-.9-1.42-.82-2.17.76-2.96,7.33-3.64,14.58-7.43,22.86-8.55,1.97-.27,3.47-1.46,4.73-2.93,3.82-4.42,8.83-7.08,14-9.5.86-.4,1.68-.7,2.78-.06,4.82,2.79,12.83,1.63,16.93-2.58,2.31-2.37,5.98-3.47,6.87-7.22.06-.24.61-.45.97-.53,3.3-.77,6.61-1.49,9.91-2.26,1.55-.36,2.35.22,2.76,1.77,3.33,12.5,15.15,15.92,25.64,15.49,2.51-.1,3.33-2.21,4.11-4.23Z"/>
      <path class="cls-28" d="M126.03,143.1c-1.5-.95-2.95.02-4.56.44-1.97.52-3.4-.52-4.17-2.49-2.2-5.61-2.97-6.01-8.81-5.82-5.5.18-10.53,1.95-15.41,4.26-3.69,1.74-7.34,2.44-11.45,1.21-4.64-1.38-9.35-.68-13.7,1.4-3.05,1.45-5.85,1.25-8.47-.62-5.43-3.88-10.15-8.68-15.93-12.12-1.24-.74-1.99-2.17-1.97-3.55.03-2.88-1.27-5.11-3.28-6.78-2.98-2.48-4.17-6.66-8.21-8.16-1.6-.6-1.58-2.45-1.03-3.96.82-2.23.8-4.3-.78-6.17-.56-.67-.55-.94.18-1.61,4.66-4.29,5.46-10.11,5.87-15.97.1-1.48-.17-2.92.65-4.31.8-1.35.6-2.68-.47-3.86-1.86-2.05-.83-3.87.49-5.62,3.83-5.07,7.55-10.3,11.73-15.01,3.06-3.45,5.98-7.65,10.93-9.12,2.71-.8,5.06-2.3,7.21-4.14,1.88-1.61,3.34-3.38,3.41-6.02.03-.99.37-1.92.9-2.81,2.35-4.01,2.63-4.03,5.45-.37.8,1.04,1.36,1.6-.23,2.67-2.22,1.5-2.7,3.84-1.45,6.34,1.12,2.24,2.47,4.34,4.21,6.14.95.98,1.2,1.49-.21,2.37-2.4,1.49-2.25,3.83-1.35,6.11.43,1.09,1.14,2.13,1.94,3,2.01,2.2,3.94,3.84,2.49,7.7-1.25,3.35,1.84,6.26,4.33,8.62.93.89,1.47,1.31.58,2.76-1.97,3.23-.15,5.96,1.92,8.36,1.02,1.19,2.4,2.09,3.69,3.01.71.5,1.29.81.71,1.82-2.02,3.48-.58,6.29,1.83,8.88.61.66,1.15,1.45,1.9,1.89,2.96,1.72,5.57,3.04,5.18,7.64-.28,3.36,3.45,5.3,6.44,6.8,1.31.66,2.12,1.07,1.73,3.03-.79,3.96,2.13,7.56,7.25,9.28,1.91.64,2.82,1.25,2.88,3.56.12,3.84,3.59,6.64,8.03,7.01,1.41.12,2.74.17,2.52,2-.18,1.49-1.31,2.12-2.97,2.19Z"/>
      <path class="cls-14" d="M285.12,252.8c25.42-19.48,48.25-41.55,66.72-67.82,9.89-14.06,18.6-28.86,22.81-45.81,2.62-10.56,3.65-21.15,1.12-31.93-3.03-12.94-10.55-22.39-21.89-28.97-5.9-3.42-12.3-5.63-18.87-7.41-1.87-.51-2.73-.38-2.07,1.81.17.57.12,1.21.32,1.76.73,2.04-.1,2.25-1.85,1.79-5.1-1.36-10.22-2.64-15.33-3.95-8.1-2.08-16.2-4.15-24.29-6.25-1.06-.27-2.07-.69-3.56-1.19,4.96-2.19,9.55-4.23,14.14-6.25,7.77-3.4,15.56-6.75,23.31-10.21,2.13-.95,2.95-.69,3.25,1.84.73,6.18.86,6.12,7.38,7.73,13.78,3.41,26.32,9.2,36.47,19.45,8.98,9.07,13.78,20.18,15.45,32.66,2.04,15.25-1.33,29.76-6.91,43.82-6.77,17.04-17.02,32.02-28.36,46.27-9.9,12.44-20.94,23.84-32.68,34.54-13.22,12.04-27.27,23.04-41.93,33.3-19.27,13.48-39.67,24.98-60.79,35.23-18.32,8.9-37.24,16.33-56.73,22.31-10.39,3.19-20.87,6.07-31.54,8.06-13.03,2.43-26.18,4.04-39.47,4.59-14.56.6-28.89-.62-42.94-4.39-13.47-3.61-25.49-9.93-34.7-20.65-7.59-8.83-11.5-19.27-12.07-30.91-.87-17.68,4.61-33.76,12.55-49.21.27-.19.52-.16.75.06-3.56,8.02-6.85,16.14-8.97,24.69-2.99,11.99-3.96,24.02-.17,36.02,5.09,16.09,16.41,26.39,31.52,32.77,11.11,4.69,22.86,6.64,34.91,7.37,22.24,1.35,43.94-1.9,65.43-7.11,30.12-7.31,58.55-19.01,85.92-33.43,15.39-8.1,30.23-17.09,44.63-26.82.86-.58,2.04-.94,2.2-2.25,4.85-3.76,9.76-7.42,14.66-11.11.47-.35.97-.72,1.62-.38Z"/>
      <path class="cls-28" d="M823.8,104.26c17.44,16.62,34.38,32.75,51.88,49.42,0-2.17,0-3.54,0-4.92,0-13.4.05-26.79-.08-40.19-.02-2.33.67-2.85,2.86-2.76,4.19.17,8.4.1,12.59.03,1.44-.02,2.15.23,2.15,1.93-.06,28.29-.06,56.58-.08,84.87,0,.07-.1.15-.4.57-17.03-16.09-34.02-32.14-51.15-48.32-.77,1.15-.44,2.26-.45,3.27-.03,13.7-.1,27.39.05,41.09.03,2.58-.73,3.18-3.16,3.05-3.99-.21-8-.12-11.99-.02-1.57.04-2.27-.22-2.27-2.06.06-28.39.04-56.78.04-85.96Z"/>
      <path class="cls-28" d="M110.25,13.71c4.94-1.6,9.62-2.22,14.19-1.84,2.73.22,5.04-.96,7.62-.83,2.86.14,5.76.74,8.45-.99.8-.52,1.91-.17,2.35.71.56,1.12,1.65.84,2.67,1.25-1.36,1.49-2.15,2.91-.51,4.72.87.96.19,2.05-.67,2.89-1.28,1.25-2.54,2.52-3.91,3.87,3.96,1.99,7.48,4.44,12.13,4.73,3.02.19,6.32,1.06,7.74,4.63.48,1.19,1.85,1.49,3.05,1.59,2.96.24,5.65,1.21,8.07,2.88,1.39.96,2.66.54,3.92-.14,1.2-.65,1.68-1.78,1.32-3.04-.74-2.6-.09-4.53,2.46-5.59,2.7-1.13,5.6-1.51,7.89.53,1.4,1.25,2.92,1.39,4.44,2.01,4.7,1.91,9.75,2.27,14.54,3.7,2.5.75,4.82.81,7.19-.38,3.11-1.56,6.22-1.96,9.4-.03,1.12.68,2.57.82,3.76.19,1.78-.94,2.45,0,3.12,1.39,1.94,4,2.99,7.99.11,12.24-2.05-2.62-3.99-5.12-5.94-7.62-.22.13-.44.26-.65.4,3.26,5.83,7.35,11.21,10.34,17.77-6.2-.94-11.98-.39-17.67,1.12-7.8,2.06-14.53,6.13-20.41,11.47-2.61,2.37-3.75,6.07-6.18,8.74-.72.8-1.32,1.71-2.11,2.75-23.35-25.44-49.91-47.05-76.7-69.1Z"/>
      <path class="cls-28" d="M690.66,192.49c-24.14.32-43.83-19.62-43.35-43.89.4-20.09,13.11-37.09,32.23-41.87,15.02-3.76,28.6.07,40.43,10.07,1.16.98,1.66,1.69.26,3-3.28,3.07-6.44,6.27-9.55,9.51-1.07,1.12-1.67,1.12-2.88.08-15.24-13.02-38.8-5.27-42.72,14.4-2.19,10.98.78,20.42,12.43,27.84,9.03,5.75,21.69,4.62,29.85-2.47,1.54-1.34,2.3-1.53,3.73.02,2.91,3.15,5.98,6.17,9.11,9.11,1.25,1.18,1.25,1.83-.04,2.97-8.44,7.43-18.23,11.23-29.49,11.22Z"/>
      <path class="cls-28" d="M472.21,149.1c0-13.49.05-26.97-.06-40.46-.02-2.21.48-2.84,2.77-2.83,15.59.11,31.17.1,46.76.02,2.03-.01,2.79.42,2.69,2.6-.18,3.89-.18,7.8,0,11.68.11,2.31-.49,3.07-2.94,3.04-9.69-.15-19.38,0-29.07-.12-2.2-.03-2.94.47-2.83,2.77.21,4.19.15,8.39.02,12.58-.05,1.77.58,2.17,2.23,2.16,6.99-.08,13.99.03,20.98-.08,1.97-.03,2.84.31,2.73,2.55-.19,4.09-.17,8.19-.01,12.28.08,2.05-.65,2.47-2.54,2.44-6.69-.1-13.39.08-20.08-.09-2.51-.06-3.41.41-3.35,3.21.21,9.59.02,19.18.12,28.77.02,2.06-.46,2.78-2.62,2.68-3.89-.18-7.8-.2-11.69,0-2.41.12-3.21-.44-3.18-3.04.15-13.39.07-26.77.07-40.16Z"/>
      <path class="cls-28" d="M615.63,148.67c0-13.29.07-26.59-.06-39.88-.03-2.46.74-2.99,3.01-2.89,4.09.17,8.2.11,12.29.02,1.63-.04,2.26.36,2.25,2.14-.05,27.29-.05,54.58,0,81.87,0,1.78-.64,2.18-2.26,2.15-4.1-.09-8.2-.16-12.29.02-2.32.1-3.02-.52-3-2.94.12-13.49.06-26.99.06-40.48Z"/>
      <path class="cls-23" d="M241.97,150.53c3.22-5.51,5.98-11.18,7.88-17.26.74-2.38,1.37-4.78,1.67-7.26.18-1.49.47-2.85,1.58-4.07,1.76-1.94.99-4.39.65-6.6-.28-1.8-.58-3.41.35-5.18.79-1.51-.17-3.15-.69-4.6-1.1-3.09-1.6-6.06.52-9.13,1.62,2.04,3.78,3.46,6.23,4.42,1.35.53,2.38,1.37,3.38,2.38,1.68,1.7,3.23,3.52,5.2,4.94,3,2.15,2.99,2.78.28,5.35,1.92.13,3.1,1.25,4.03,2.77,1.56,2.56,3.43,2.83,6.31,1.69,3.33-1.32,7.02-1.73,10.56-2.52,2.72-.6,5.45-1.15,8.16-1.78,1.28-.3,2.66-1.72,3.8-.43,1.13,1.28,1.3,3.41.82,4.85-4.25,12.58-9.42,24.68-19.69,33.77-1.34,1.18-2.91,2.08-4.31,3.21-.81.65-1.39.86-2.29.08-.82-.71-1.38-1.24-.88-2.45,2.94-7.01,2.18-13.77-1.23-20.46-2.41-4.73-5.9-5.39-9.61-1.52-2.98,3.11-5.67,6.33-6.93,10.66-.93,3.2-1.33,6.19-.03,9.32.32.76,1,1.81-.27,2.29-1.53.58-1.16-1.01-1.47-1.64-1.52-3.07-3.57-4.11-7.13-3.24-2.32.56-4.56,1.41-6.91,2.43Z"/>
      <path class="cls-30" d="M373.88,243.03c0-8.49-.05-16.99.02-25.48.06-7.19,3.16-10.25,10.24-10.27,7.2-.02,14.39-.02,21.59,0,6.51.02,9.84,3.11,10.06,9.62.18,5.49,0,10.99.08,16.49.02,1.57-.53,2.1-2.09,2.06-6.99-.15-5.61.78-5.72-5.32-.06-3.2.04-6.4-.03-9.59-.07-3.2-1.2-4.37-4.34-4.4-5.7-.06-11.39.03-17.09,0-2.61-.02-3.85,1.12-3.85,3.77.02,15.49.01,30.98,0,46.47,0,2.72,1.2,4.01,4.01,3.97,5.7-.08,11.39,0,17.09-.04,2.91-.03,4.11-1.22,4.17-4.24.09-4.5.11-9,0-13.49-.05-1.97.36-2.83,2.6-2.79,5.22.08,5.32-.04,5.21,5.22-.12,5.68.69,11.39-.47,17.02-.96,4.69-3.75,7.09-8.57,7.16-8.09.13-16.19.14-24.29-.01-5.34-.1-8.53-3.64-8.59-9.45-.1-8.89-.03-17.79-.03-26.68h0Z"/>
      <path class="cls-30" d="M582.52,247.7c0-9.5-.08-19,.06-28.49.04-2.55-.79-3.25-3.25-3.15-4.29.18-8.6-.02-12.89.09-1.84.05-2.4-.52-2.34-2.39.19-6.47.13-6.47,6.52-6.47,12,0,24,.05,35.99-.04,2.24-.02,3.17.4,3.03,2.94-.33,5.91-.19,5.92-6.18,5.92-3.2,0-6.4.1-9.6-.04-2.03-.09-2.67.83-2.67,2.63,0,2.9,0,5.8,0,8.7,0,14.6,0,29.19,0,43.79,0,.9,0,1.8.02,2.7.03,1.73,1.27,4.15-.48,4.98-2.17,1.03-4.92.55-7.38.18-1.3-.2-.81-1.65-.81-2.56-.03-9.6-.02-19.19-.02-28.79h.02Z"/>
      <path class="cls-4" d="M871.8,243.04c0-10.99.06-21.98-.06-32.96-.02-2.28.68-2.89,2.89-2.83,7.2.2,6.02-.75,6.04,6.04.06,17.98.07,35.96-.03,53.94-.02,2.52.7,3.22,3.18,3.16,6.39-.16,12.79,0,19.18-.08,1.81-.02,2.38.53,2.42,2.37.13,6.54.2,6.54-6.32,6.54-8.09,0-16.19-.07-24.28.05-2.28.03-3.1-.51-3.07-2.97.14-11.09.06-22.17.06-33.26Z"/>
      <path class="cls-28" d="M285.12,252.8c-4.62,3.52-9.25,7.04-13.87,10.56-.71.54-1.42,1.09-2.4.93-2.52-3.82-2.76-12.74.04-16.05,3.26-3.85,3.83-7.88,2.93-12.71-.95-5.06,3.89-9.48,8.99-8.76.35.05.82.57,1.02.11,1.07-2.51,3.49-3.35,5.53-4.67.28-.18.55-.67.51-.98-.32-2.27.87-3.29,2.77-4.29,1.83-.97,1.68-3.46,2.77-5.47,4.75,4.52,3.38,10.13,4,15.23-1.59.56-1.48-1.3-2.63-.97.29,5.53-2.91,10.01-4.68,14.92-1.48,4.11-3.3,8.1-4.97,12.15Z"/>
      <path class="cls-8" d="M487.29,243.2c0-11.08.05-22.16-.04-33.24-.02-2.1.62-2.71,2.7-2.72,6.29,0,6.29-.09,6.29,6.29,0,20.86-.06,41.72.03,62.58,0,2.47-.64,3.25-3.16,3.18-5.81-.15-5.82-.02-5.82-5.86,0-10.08,0-20.16,0-30.24Z"/>
      <path class="cls-9" d="M790.89,243.23c0-10.89.06-21.79-.05-32.68-.02-2.4.57-3.35,3.15-3.3,5.86.11,5.86-.02,5.86,5.83,0,20.89-.04,41.78.07,62.67.01,2.64-.53,3.67-3.42,3.56-5.6-.22-5.61-.04-5.62-5.79,0-10.09,0-20.19,0-30.28Z"/>
      <path class="cls-27" d="M737.94,387.83c2.61-1.13,4.38-2.73,5.86-4.6,6.65-8.42,10.73-17.89,11.43-28.69,0-.1.01-.2.01-.3.04-7.64-1.6-10.06-10.76-8.83-2.47.33-4.74,1.49-6.77,2.99-7.89,5.8-12.43,13.56-13.58,23.28-.34,2.88-.16,5.56,2.61,7.41.75.5,1.4,1.35,1.39,2.76-4.95-3.12-7.58-7.41-7.03-12.99,1.07-10.81,5.89-19.69,15.39-25.29,9.97-5.88,20.22-.6,21.41,10.89,1.17,11.31-3.23,21.05-9.35,30.19-1.8,2.69-4.07,4.94-6.79,6.67-1.4.89-3,2.16-4.67,1.19-1.82-1.05-2.44-2.94-2.41-5.14.07-5.41.7-10.75,1.62-16.06,1.21-6.96,2.8-13.85,4.64-20.68.15-.55-.05-1.34.73-1.45.65-.09.96.59,1.37,1,1.22,1.21,1.25,2.67.86,4.18-2.34,9.07-4.51,18.17-5.59,27.5-.22,1.89-.43,3.75-.38,5.96Z"/>
      <path class="cls-20" d="M517.18,314.91c0-5.59.02-10.37-.01-15.15-.02-2.06-1.02-3.39-3.15-3.7-.76-.11-1.83.03-1.65-1.17.17-1.17,1.27-.7,1.97-.71,2.7-.06,5.4-.03,8.1,0,.55,0,1.28-.16,1.37.72.08.73-.34,1.05-1.05,1.14-2.53.33-2.82,2.29-2.86,4.22-.13,7.49-.15,14.99-.28,22.48-.01.86.7,2.13-.72,2.53-1.17.33-2.03-.27-2.81-1.22-5.23-6.3-10.51-12.56-15.78-18.82-.8-.96-1.64-1.88-2.78-3.19,0,6.08-.08,11.63.04,17.18.04,1.94,1.08,3.4,3.28,3.62.7.07,1.47.14,1.33,1.17-.11.85-.81.75-1.38.75-2.9.02-5.8.02-8.7,0-.57,0-1.26.1-1.4-.73-.13-.77.34-1.12,1-1.19,2.27-.27,2.96-1.9,3.11-3.79.49-6.38.32-12.79.14-19.18-.06-2.04-1.29-3.54-3.51-3.85-.62-.09-1.23-.16-1.23-.97,0-1.13.89-.86,1.52-.87,2.1-.03,4.2.07,6.3-.04,1.34-.07,1.93.78,2.65,1.61,5.33,6.2,10.67,12.39,16.51,19.17Z"/>
      <path class="cls-20" d="M342.69,307.11c0-2.3-.04-4.6.01-6.9.04-2.19-.27-4.05-3.02-4.23-.7-.04-1.11-.41-1.01-1.16.09-.69.67-.65,1.14-.65,4.1-.01,8.2-.01,12.3,0,.48,0,1.05-.02,1.14.66.1.76-.33,1.1-1.03,1.14-2.56.17-2.96,1.94-2.96,4.01,0,4.6-.13,9.2.02,13.79.2,6.13,3.8,9.06,9.59,8.04,3.3-.58,5.7-3.66,5.93-8.36.23-4.69.05-9.39.04-14.09,0-2.07-1.22-3.03-3.13-3.34-.74-.12-1.79.11-1.65-1.15.12-1.04,1.06-.7,1.67-.71,2.8-.04,5.6-.02,8.4,0,.57,0,1.27-.12,1.36.75.07.74-.38,1.04-1.07,1.12-2.15.25-2.63,1.79-2.86,3.6-.51,4.19-.23,8.39-.28,12.58-.13,10.22-7.01,15.38-16.78,12.55-4.63-1.34-7.18-4.29-7.6-9.26-.24-2.78-.04-5.59-.04-8.39-.05,0-.1,0-.16,0Z"/>
      <path class="cls-5" d="M658.2,294.08c3.2,0,6.4.06,9.59-.03,1.39-.04,2,.34,1.93,1.82-.06,1.39.08,2.79.17,4.19.05.73.15,1.46-.75,1.71-.95.26-1.07-.48-1.38-1.15-1.8-3.91-4.64-5.24-8.86-4.36-1.26.26-1.57.94-1.55,2.1.05,2.7.05,5.39-.01,8.09-.03,1.23.33,1.91,1.68,1.78,2.59-.26,5.88,1.03,6.68-3.11.1-.51.55-.79,1.14-.74.84.08.85.69.85,1.29,0,2.6,0,5.19,0,7.79,0,.5-.03,1.04-.67,1.13-.63.09-1.25,0-1.39-.76-.79-4.39-4.27-2.91-6.92-3.15-1.31-.12-1.35.87-1.34,1.82.02,2.2.1,4.4.05,6.59-.05,2.15.4,3.79,3,3.82.66,0,1.21.28,1.07,1.07-.14.78-.78.78-1.4.78-4,0-7.99,0-11.99,0-.58,0-1.25.05-1.33-.81-.08-.81.44-1.04,1.09-1.08,2.46-.15,2.75-1.81,2.75-3.78-.02-6.49-.01-12.98.01-19.48,0-1.87-.35-3.41-2.62-3.59-.62-.05-1.23-.18-1.22-.98,0-1.13.9-.86,1.53-.86,3.3-.03,6.59-.01,9.89-.01v-.08Z"/>
      <path class="cls-1" d="M596.97,293.59c.5,0,1-.01,1.5,0,4.29.15,6.43,3.15,5.24,7.26-.18.62-.54.79-1.05.79-.99,0-.98-.92-1.18-1.49-.97-2.79-2.61-4.66-5.81-4.68-1.87-.01-3.35.68-4.12,2.4-.79,1.75-.72,3.45.6,5.02,1.33,1.58,3.17,2.37,4.88,3.37,1.8,1.06,3.73,1.88,5.27,3.36,4.27,4.09,3.51,11.07-1.63,14-4.49,2.55-9.17,2.16-13.88.59-1.13-.38-1.09-1.27-1.25-2.14-.28-1.57-.57-3.13-.87-4.69-.13-.68-.42-1.38.59-1.68.92-.28,1.27.28,1.55.97.83,2.06,1.93,3.92,3.75,5.3,2.67,2.02,5.87,2,7.54-.09,1.8-2.25,1.25-5.58-1.45-7.61-1.66-1.25-3.51-2.26-5.3-3.33-5-2.99-6.88-6.59-5.68-11.01,1.07-3.96,4.9-6.3,10.4-6.35.3,0,.6,0,.9,0v.03Z"/>
      <path class="cls-20" d="M779,293.56c.3,0,.6,0,.9,0,5.32.11,6.05.86,6.05,6.25,0,.77.26,1.64-.93,1.83-1.06.17-1.08-.73-1.28-1.29-.94-2.59-2.28-4.65-5.38-4.86-2.09-.14-3.82.47-4.68,2.44-.93,2.13-.56,4.23,1.31,5.67,1.65,1.26,3.52,2.24,5.35,3.24,6.19,3.38,8.21,7.17,6.38,12.13-1.73,4.71-7.96,7.53-13.77,6.25-4.64-1.03-6.44-3.48-6.1-8.26.05-.64.05-1.13.82-1.33.87-.23,1.05.39,1.26.91.79,1.97,1.83,3.75,3.47,5.15,2.68,2.29,5.93,2.41,7.77.28,1.92-2.22,1.33-5.71-1.47-7.82-1.42-1.07-3.02-1.93-4.57-2.83-5.69-3.35-7.52-6.74-6.18-11.52,1.16-4.13,4.91-6.24,11.04-6.22Z"/>
      <path class="cls-20" d="M425.94,293.59c.6,0,1.2-.02,1.8,0,4.12.16,6.3,3.08,5.38,7.11-.14.61-.47.81-.97.92-.61.13-.91-.23-1.13-.72-.41-.9-.73-1.86-1.24-2.71-1.33-2.22-3.39-3-5.88-2.67-2.05.27-3.11,1.65-3.55,3.56-.56,2.44.79,4.02,2.61,5.22,1.74,1.15,3.6,2.13,5.42,3.16,4.91,2.77,6.74,6.03,5.79,10.34-.88,4.03-4.8,7.11-9.69,7.61-2.73.28-5.34-.31-7.94-1.05-.98-.28-1.57-.77-1.73-1.78-.25-1.57-.6-3.13-.75-4.71-.07-.77-.67-1.87.69-2.23,1.49-.4,1.22,1.01,1.55,1.66,1.23,2.46,2.69,4.66,5.38,5.73,2.32.92,4.36.49,5.86-1.51,1.46-1.95,1.06-4.74-.81-6.51-2.05-1.95-4.67-3.02-7-4.54-2.57-1.68-4.72-3.71-5.05-7-.52-5.16,2.91-9.23,8.27-9.8.99-.11,1.99-.02,2.99-.02v-.05Z"/>
      <path class="cls-25" d="M280.89,308.73c0,3.4.02,6.79,0,10.19-.02,2.17.63,3.71,3.1,3.92.7.06,1.79-.14,1.63,1.15-.12,1.05-1.02.76-1.65.76-4,.03-7.99.03-11.99,0-.61,0-1.51.36-1.69-.68-.18-.99.55-1.18,1.29-1.2,2.47-.07,2.78-1.59,2.76-3.65-.07-6.49.03-12.99-.05-19.48-.01-1.15.87-3.06-.77-3.36-2.05-.38-4.49-.6-5.98,1.6-.66.98-1.11,2.11-1.59,3.2-.27.61-.61,1.06-1.31.96-.83-.12-.73-.79-.69-1.39.06-1.2.11-2.4.2-3.59.3-3.79.31-3.17,3.78-3.19,7.32-.04,14.73,1.34,21.96-.83,1.36-.41,1.58.4,1.63,1.38.1,1.99.16,3.99.2,5.99.01.65.21,1.45-.87,1.57-1.04.11-1.11-.72-1.28-1.33-.96-3.42-3.23-4.72-6.71-4.58-1.58.07-2.06.51-2.02,2.07.1,3.49.03,6.99.03,10.49h.02Z"/>
      <path class="cls-13" d="M853.39,308.51c0,3.5-.02,6.99,0,10.49.02,2.1.64,3.74,3.17,3.85.62.03,1.54-.08,1.47,1.01-.07,1.05-.91.89-1.57.89-4.2.02-8.39.01-12.59,0-.68,0-1.47.09-1.45-.99.02-.88.7-.87,1.27-.89,2.7-.1,3.19-1.84,3.19-4.08-.01-6.29.09-12.59,0-18.88-.02-1.22.95-3.26-.96-3.55-2.16-.33-4.7-.61-6.27,1.69-.61.9-1.05,1.93-1.43,2.95-.27.74-.58,1.35-1.43,1.14-.96-.23-.69-1.05-.65-1.73.08-1.3.19-2.59.25-3.89.1-2.3-.26-4.39,3.54-2.69,2.34,1.05,5.52.47,8.29.26,4.81-.36,9.75,1.16,14.46-1.03,1.03-.48,1.25.58,1.26,1.44.04,2,.1,4,.13,5.99,0,.66.2,1.46-.87,1.56-1.05.1-1.06-.75-1.24-1.36-.92-3.25-3-4.68-6.4-4.54-1.61.06-2.34.35-2.28,2.16.13,3.39.04,6.79.04,10.19.02,0,.03,0,.05,0Z"/>
      <path class="cls-7" d="M813.83,309.48c0-3.3.01-6.59,0-9.89,0-1.83-.32-3.45-2.65-3.57-.66-.03-1.18-.26-1.16-1.04.02-.89.72-.82,1.29-.82,4-.01,7.99,0,11.99,0,.48,0,1.05-.04,1.13.64.06.52,0,1.08-.65,1.12-3.81.19-3.33,3.16-3.39,5.5-.14,5.39-.08,10.79-.02,16.18.02,1.73-.34,3.77,1.62,4.77,1.87.95,6.62.08,7.86-1.43,1.01-1.22,1.75-2.65,2.65-3.97.31-.45.49-1.23,1.29-.94.76.28,1.04.87.79,1.68-.06.19-.1.39-.14.58q-1.26,6.46-7.79,6.46c-5.09,0-10.19.02-15.28-.02-.69,0-1.75.46-1.94-.75-.2-1.27.9-1.1,1.61-1.17,2.16-.2,2.83-1.46,2.79-3.46-.06-3.29-.02-6.59-.02-9.89.01,0,.02,0,.03,0Z"/>
      <path class="cls-17" d="M473.3,364.3c1.2-1.55,2.18-3.06,3.41-4.33,1.69-1.73,3.36-1.34,4.8.48,1.14,1.44,1.31,5.04.21,5.88-.96.73-1.16-.29-1.46-.79-.56-.93.7-1.6.45-2.51-5.06,2.84-6.98,10.4-4.49,18.14,2.1-1.78,2.97-4.25,4.21-6.48.32-.58.46-1.63,1.24-1.42.74.2,1.21,1.12.82,1.98-1.18,2.64-2.27,5.36-4.35,7.44-1.24,1.24-3.6.47-4.61-1.53-.62-1.23-.95-2.61-1.46-4.08-1.43,2.23-2.73,4.4-4.2,6.45-.73,1.02-1.73,2.28-3.17,1.81-1.48-.49-2.39-1.88-2.57-3.41-.22-1.86-.33-3.79.74-5.52,1.93.92.73,2.65,1.33,4.92,2.81-5.71,7.72-9.64,6.72-16.19-.17-1.12-.7-2.85-1.44-3.09-1.31-.41-2.16,1.13-2.91,2.15-2.15,2.89-3.8,6.09-5.49,9.26-.32.6-.44,1.78-1.48,1.3-.95-.45-.93-1.47-.43-2.35,1.86-3.3,3.48-6.73,5.71-9.81,2.81-3.88,4.9-3.86,7.47.16.3.46.58.94.94,1.53Z"/>
      <path class="cls-17" d="M206.19,375.22c-1.11-.77-1.78-1.36-.98-2.74,1.9-3.26,3.47-6.72,5.69-9.81,2.89-4.01,4.93-3.96,7.6.25.27.42.52.85.79,1.27,2.43-1.61,2.67-6.89,7.22-4.6,2.67,1.34,2.75,3.69.98,6.94q-1.27-1.33-.79-3.62c-5.03,3.52-6.84,10.6-4.54,18.24,2.32-1.69,3.11-4.26,4.35-6.53.3-.55.41-1.6,1.32-1.27.83.3,1.06,1.21.69,2.04-1.12,2.56-2.31,5.14-4.23,7.18-1.8,1.92-3.32.34-4.44-1.04-1-1.24-1.33-2.87-1.56-4.85-1.42,2.31-2.6,4.42-3.97,6.39-.83,1.2-1.88,2.77-3.53,2.25-1.83-.58-2.68-2.35-2.69-4.28,0-1.54.02-3.12.68-4.66,2.27,1.23.78,2.92.9,4.7,3.14-2.74,4.23-6.47,6.27-9.56,1.73-2.62,1.5-5.18.53-7.95-.73-2.07-1.61-1.95-2.88-.55-2.09,2.31-3.51,5.06-5.03,7.75-.82,1.45-1.58,2.92-2.41,4.45Z"/>
      <path class="cls-17" d="M343.44,358.7c5.3,3.66.78,7.93,1.27,12.13,1.5-3.02,2.84-5.85,4.31-8.61.73-1.36,1.49-3.29,3.48-2.48,1.8.74,2.16,2.32,1.65,4.43-1.18,4.92-1.97,9.93-2.96,15.08,1.92-1.79,2.32-4.27,3.77-6.17.27.17.63.27.75.5.89,1.71-3.07,9.73-4.92,9.65-2.14-.08-3-1.63-2.96-3.71.07-3.91.99-7.69,1.73-11.5.13-.67.44-1.31.01-2.31-3.71,7.01-7,13.94-8.22,21.8-2.79-1.77-2.91-4.1-2.5-6.89,1.08-7.35,2.83-14.54,4.59-21.93Z"/>
      <path class="cls-17" d="M663.04,366.24c-2.2,3.17-3.94,6.46-5.11,10.07-1.16,3.56-2.72,7-2.88,11.18-2.37-1.44-3.2-3.06-2.9-5.4,1.02-7.79,2.89-15.4,4.72-23.45,1.66,1.56,2.93,2.83,2.39,4.96-.46,1.82-1.13,3.6-.98,6.26,1.57-3.04,2.78-5.54,4.15-7.95.7-1.24,1.45-3.04,3.34-2.16,1.7.79,2.05,2.3,1.58,4.28-1.09,4.68-2.14,9.39-2.13,14.35.95-1.8,1.91-3.6,2.86-5.41,1.48.78,1.7,1.78.83,3.18-1.11,1.77-2.03,3.67-3.16,5.42-.54.84-.98,2.08-2.48,1.57-1.38-.48-2.17-1.39-2.26-2.85-.18-3.12.53-6.15,1.05-9.2.28-1.63.64-3.24.97-4.86Z"/>
      <path class="cls-13" d="M755.16,309.31c0,3.39-.02,6.79.01,10.18.01,1.76.56,3.15,2.62,3.36.58.06,1.24.05,1.22.93-.01,1.07-.8.96-1.48.96-3.79.02-7.59.02-11.38,0-.54,0-1.26.18-1.42-.66-.19-.98.46-1.19,1.22-1.26,2.06-.19,2.62-1.58,2.62-3.34.02-6.79.05-13.57,0-20.36-.01-1.59-.56-2.98-2.54-3.09-.75-.04-1.45-.2-1.3-1.19.13-.85.86-.67,1.4-.68,3.89-.02,7.79-.01,11.68,0,.47,0,1.06-.08,1.16.61.1.68-.13,1.17-.92,1.21-2.65.13-2.86,2.06-2.89,4.04-.04,3.09-.01,6.19,0,9.28Z"/>
      <path class="cls-10" d="M788.83,364.13c-1.42,3.45-2.57,6.29-3.77,9.09-.27.63-.25,1.92-1.39,1.42-1.16-.51-.81-1.61-.41-2.6,1.83-4.51,3.65-9.02,5.46-13.54.3-.74.57-1.48.86-2.23.46-1.22,1.12-2.32,2.61-1.5,1.12.62,2.13,1.4,1.28,3.09-2.32,4.61-1.57,9.54-1.11,14.38.5,5.3.84,10.55-1.47,15.56-1.07,2.32-2.53,4.83-5.35,4.41-2.82-.42-3.92-3.16-4.48-5.77-.56-2.64.04-5.15,1.5-7.4.35-.53.75-1.61,1.75-.83.72.56.81,1.22.15,2.04-1.4,1.76-2.14,3.82-2.06,6.09.03.71-.43,1.7.61,2.06.82.29,1.55-.16,2.21-.64,2.23-1.65,3.12-4.08,3.76-6.61,1.37-5.44.76-10.88-.14-17.02Z"/>
      <path class="cls-17" d="M524.54,336.17c2.56,1.72,3.14,3.56,2.43,6.32-2.89,11.16-5.77,22.33-7.55,33.74-.17,1.08-.25,2.17-.41,3.61,2.21-1.37,2.71-3.59,3.95-5.23.39-.52.38-1.78,1.46-1.25.74.37,1.05,1.28.55,2.08-1.45,2.37-2.59,4.94-4.5,7.02-1.1,1.2-1.97.94-2.95-.14-1.31-1.45-1.58-3.18-1.48-5.01.38-6.79,1.9-13.38,3.41-19.97,1.6-6.97,3.33-13.91,5.08-21.19Z"/>
      <path class="cls-15" d="M133.87,146.3c1.48-.05,2.84.55,4.22.15.75-.22,1.03.16,1.28.82.84,2.2,2.54,3.48,5.2,4.17-2.3,2.94-4.36,5.67-6.53,8.31-.77.94-1.9,1.87-1.7,3.03.54,3.11-1.58,4.67-3.37,6.69-1.71-2.28-2.8-4.24-1.12-7.22,2.36-4.18,1-9.36,2.97-13.78.21-.46-.58-1.36-.95-2.17Z"/>
      <path class="cls-10" d="M374.14,366.66c-1.37-.49-1.19-1.62-1.9-2.5-3.89,5.21-5.39,10.92-5.03,17.64,3.81-2.05,5.18-5.59,7.25-8.55,1.39,1.5,1.48,1.55.93,2.57-1.22,2.28-2.43,4.58-4.37,6.37-2.29,2.11-3.81,1.92-5.59-.67-1.66-2.41-1.49-5.12-1.2-7.79.43-3.99,1.53-7.82,3.76-11.21.96-1.45,2.05-3.45,4.19-2.48,2.17.98,3.21,2.92,2.35,5.45-.12.36-.24.72-.39,1.18Z"/>
      <path class="cls-2" d="M813.86,366.63c-1.11-.48-.91-1.53-1.51-2.04-2.28-.59-5.91,11.52-5.04,16.95,3.73-1.74,4.95-5.52,7.14-8.46.83.46,1.44,1.32,1.12,1.96-1.53,3.12-3.06,6.31-6.16,8.27-1.27.81-2.24.1-3.18-.76-2.64-2.4-2.46-5.55-2.18-8.63.35-3.79,1.36-7.46,3.39-10.72,1.05-1.69,2.08-4.01,4.72-3.13,2.35.78,2.92,3.42,1.69,6.55Z"/>
      <path class="cls-18" d="M851.07,385.18c-1.81-1.67-2.76-3.13-2.34-5.78.84-5.2,1.64-10.44,1.77-15.74.05-1.88-.27-3.69-.88-5.77,5.11,3.76,3.57,8.91,3.58,14.36,2.04-3.88,3.71-7.22,5.54-10.47.41-.73.54-2.56,2.04-1.65,1.25.76.34,1.84-.23,2.81-3.83,6.44-6.85,13.24-8.73,20.52-.14.53-.44,1.02-.76,1.71Z"/>
      <path class="cls-10" d="M770.07,358.25c2.19,1.94,3.09,3.49,2.35,6.26-1.22,4.52-2.46,9.11-2.25,14.02.79-1.33,1.55-2.68,2.39-3.98.31-.48.38-1.59,1.39-.91.58.39,1.03,1.07.61,1.81-1.47,2.59-2.78,5.28-4.8,7.52-.79.88-1.34.73-2.15-.16-1.59-1.75-1.7-3.78-1.38-5.88.92-6.17,2.15-12.28,3.84-18.68Z"/>
      <path class="cls-10" d="M307.76,379.14c.91-1.52,1.78-3.07,2.76-4.55.3-.46.34-1.62,1.39-.98.61.38,1.05,1.04.64,1.79-1.45,2.6-2.86,5.23-4.78,7.55-.78.94-1.39.77-2.17-.08-1.24-1.36-1.66-2.92-1.51-4.68.56-6.66,2.26-13.09,3.79-19.85,2.37,1.66,3.22,3.32,2.47,6.11-1.29,4.78-2.1,9.69-3.11,14.55.17.05.35.1.52.14Z"/>
      <path class="cls-12" d="M176.36,198.43c-9.13-.42-17.5,3.5-26.5,4.15,3.34-1.48,5.8-4.89,10.2-4.04,1.88.36,3.82-.45,5.42-1.36,3.83-2.19,7.34-1.75,10.88,1.24Z"/>
      <path class="cls-11" d="M251.79,170.28c.89,5.57.9,5.58-3.42,7.17-3.1,1.13-6.13,2.5-9.61,2.73,4.79-2.39,9.33-5.05,13.03-9.9Z"/>
      <path class="cls-16" d="M311.66,357.79c-2.79-2.16-3.37-5.96-1.41-8.57.55-.74.94-.39,1.4.04,1.6,1.5,2.22,3.16,1.25,5.33-.46,1.03-.52,2.24-1.24,3.2Z"/>
      <path class="cls-21" d="M773.89,358.07c-3.16-2.9-3.53-5.39-1.66-8.6.58-.99,1-.59,1.58-.08,1.49,1.31,1.93,2.88,1.28,4.77-.41,1.21-.76,2.43-1.21,3.92Z"/>
      <path class="cls-19" d="M13.38,233.05c-.25-.02-.5-.04-.75-.06,3-7.32,7.74-13.59,12.24-20-3.92,6.64-7.67,13.37-11.49,20.06Z"/>
      <path class="cls-26" d="M226.4,168.21c1.76-1.64,3.03-2.84,4.3-4.03.95,3.86.78,4.05-4.3,4.03Z"/>
      <path class="cls-28" d="M600.18,189.63c-5.78-8.98-11.53-17.98-17.36-26.93-1.06-1.63-1.22-2.41,1.03-2.9,2.4-.52,4.29-2.18,5.85-3.99,7.92-9.19,10-19.9,5.98-31.06-3.85-10.69-12.48-16.73-23.66-18.24-10.61-1.44-21.36-.3-32.05-.58-1.97-.05-1.68,1.2-1.68,2.38,0,7.1,0,14.19,0,21.29,0,19.79.04,39.58-.05,59.38-.01,2.31.53,3.15,2.96,3.03,3.89-.2,7.8-.16,11.69.02,2.25.11,2.82-.61,2.79-2.84-.12-11.39-.06-22.79-.06-34.18.19-.1.39-.19.58-.29,6.84,10.49,13.96,20.82,20.38,31.56,2.73,4.57,5.78,6.34,10.96,5.81,4.48-.45,9.05-.09,14.09-.09-.74-1.18-1.09-1.76-1.46-2.34ZM570.41,146.69c-4.47.96-8.97.03-13.45.25-1.38.07-1.33-.82-1.32-1.75,0-3.4,0-6.79,0-10.19,0-3.3,0-6.59,0-9.89,0-.99-.21-2.05,1.41-1.97,4.67.23,9.37-.45,13.99.8,5.3,1.44,8.55,5.67,8.47,11.22-.08,5.58-3.9,10.41-9.11,11.53Z"/>
      <path class="cls-3" d="M808.45,189.26c-10.39-22.95-20.64-45.96-30.95-68.95-2.35-5.24-4.75-10.47-7.27-16.03-13.17,29.3-26.15,58.18-39.39,87.65,6.22,0,11.9-.04,17.57.03,1.37.01,1.61-.97,2-1.83,1.4-3.08,2.84-6.16,4.1-9.3.55-1.38,1.2-2.02,2.8-2.01,8.59.08,17.19.08,25.78,0,1.55-.01,2.32.57,2.88,1.95,1.29,3.13,2.78,6.17,4.05,9.31.57,1.43,1.37,1.95,2.9,1.92,4.6-.09,9.2-.13,13.79,0,2.47.07,2.79-.42,1.74-2.75ZM776.26,163.48c-4.48-.05-8.95-.02-13.91-.02,2.72-6.08,5.22-11.68,7.82-17.51,1.75,2.4,2.4,5.11,3.57,7.56,1.28,2.69,2.38,5.45,3.61,8.16.55,1.22.44,1.82-1.09,1.8Z"/>
      <path class="cls-23" d="M418.72,104.22c-3.63,8.1-6.97,15.55-10.31,23-9.27,20.62-18.52,41.25-27.83,61.86-.91,2.02-1.09,3.01,1.73,2.9,4.49-.19,9-.13,13.49.01,1.81.05,2.66-.62,3.3-2.25,1.21-3.05,2.73-5.98,3.96-9.02.52-1.28,1.13-1.9,2.59-1.89,8.7.05,17.39.06,26.09,0,1.47-.01,2.09.59,2.61,1.84,1.3,3.12,2.74,6.19,4.14,9.27.4.88.6,1.98,1.91,1.98,5.76,0,11.53,0,17.74,0-13.18-29.33-26.18-58.25-39.41-87.69ZM410.94,163.32c2.55-5.81,5.05-11.5,7.78-17.7,2.67,6.08,5.16,11.76,7.77,17.7h-15.55Z"/>
      <path class="cls-14" d="M711.7,245.52c5.43-2.34,6.93-3.7,7.46-9.12.67-6.95.72-13.99-.02-20.93-.65-6.01-3.53-8.11-9.77-8.15-9.99-.06-19.98.04-29.97-.1-2.5-.03-3.18.72-3.16,3.2.09,21.18.06,42.35.05,63.53,0,5.28-.01,5.1,5.12,5.34,2.98.14,3.94-.62,3.84-3.76-.25-7.88-.1-15.78-.06-23.67,0-1.08-.47-2.47,1.63-2.41,5.69.17,11.38.19,17.07.24,5.31.05,7.05,1.81,7.06,7.26.01,5.49,0,10.99,0,16.48,0,5.92.02,5.79,5.85,5.86,2.38.03,2.81-.88,2.77-2.99-.12-5.99-.19-11.99,0-17.98.19-5.96-.83-11.04-7.85-12.82ZM710.46,237c-.06,3.08-1.76,4.84-4.88,4.91-6.18.16-12.37.02-18.55.08-1.72.02-1.92-.91-1.91-2.28.04-3.59.01-7.18.02-10.77,0-3.59.05-7.18-.02-10.77-.03-1.56.57-2.11,2.1-2.09,6.58.06,13.16.06,19.75.07,2.33,0,3.5,1.16,3.5,3.49,0,5.78.11,11.57-.01,17.35Z"/>
      <path class="cls-6" d="M644.76,373.55c-.96-.45-1.07.62-1.4,1.13-1.41,2.15-2.52,4.53-4.81,6.65.63-9.28,2.33-17.79,3.79-26.33,1.21-7.09-.43-10.66-6.59-13.75-3.27,8.86-6.74,17.62-10.63,26.21-.87,1.92-2.01,3.09-4.63,2.78.55-1.68,1.06-3.16,1.15-4.76.23-4.27-.83-7.28-3.3-7.96-3.49-.97-5.7,1.36-7.48,3.77-4.72,6.41-7.25,13.68-7.73,21.62-.15,2.43.44,4.76,1.72,6.87,2.16,3.55,5.4,3.98,8.38,1.15,2.93-2.78,5.54-6.02,6.94-9.66,2.42-6.27,6.85-8.02,12.95-7.83,1.94.06,2.81.07,2.47,2.39-.37,2.55-.36,5.18,1.26,7.49.92,1.32,1.85,1.74,3.09.42,2.28-2.42,3.84-5.32,5.48-8.17.49-.84.12-1.67-.66-2.03ZM618.39,379.82c-2.1,3.5-4.22,7.01-7.33,9.75-.96.85-2.08,1.69-3.51,1.02-1.33-.62-1.4-1.94-1.35-3.1.44-9.12,3.27-17.37,9.31-24.35,1.1-1.27,2.73-2.91,4.26-2.12,1.64.84.33,2.87,0,4.3-.68,2.99-1.48,5.7-4.89,7.24-4.04,1.83-3.84,6.56.02,10.36,0-4.59,1.02-5.99,5.51-7.26-.1,1.77-1.28,2.9-2.04,4.17ZM635.76,372.28c-1.63-4.67-5.59-2.76-9.09-2.94,3.77-8.52,7.42-16.73,10.18-25.29,3.42,1.1,2.94,3.68,2.54,6.17-1.19,7.36-2.42,14.71-3.64,22.07Z"/>
      <path class="cls-20" d="M406.79,322.91c-4.13-2.93-6.14-7.49-8.79-11.56-.79-1.22-.48-1.72.75-2.43,3.82-2.23,4.93-4.83,4.02-8.7-.78-3.33-3.43-5.56-7.4-5.86-2.68-.2-5.39-.04-8.08-.04,0-.05,0-.1,0-.16-2.6,0-5.19-.02-7.79.01-.63,0-1.53-.28-1.6.81-.05.76.5.98,1.16,1.05,2.19.24,2.66,1.68,2.65,3.61-.04,6.49-.04,12.98,0,19.48.01,1.89-.37,3.37-2.59,3.65-.71.09-1.44.33-1.22,1.3.18.78.88.69,1.46.69,3.7,0,7.39.01,11.09,0,.66,0,1.48.15,1.52-.93.03-.83-.61-.98-1.18-1.06-2.2-.3-2.66-1.75-2.6-3.65.05-1.6-.11-3.2.03-4.79.08-.92-.79-2.36.92-2.67,1.35-.25,2.24.54,2.89,1.68,1.23,2.17,2.58,4.27,3.73,6.48,2.22,4.29,6.06,5.11,10.37,5.04.59,0,1.24.11,1.35-.75.07-.56-.21-.85-.67-1.18ZM396.02,304.92c-.57,2.85-3.4,4.9-6.35,4.75-1.2-.06-1.53-.58-1.5-1.65.04-1.69.01-3.37,0-5.06,0-1.29-.02-2.58,0-3.87.05-2.76,1.29-3.61,3.99-2.78,3.21.98,4.72,4.35,3.86,8.62Z"/>
      <path class="cls-20" d="M562.61,306.87c-.58-5.75-3.6-9.84-9.34-11.55-7.15-2.13-14.49-.82-21.74-1.15-.5-.02-1.02.06-1.04.74-.02.76.45,1.06,1.13,1.07,2.7.07,2.89,1.95,2.89,3.97,0,3.1,0,6.2,0,9.3h-.02c0,3.4,0,6.8,0,10.2,0,1.79-.56,3.14-2.59,3.39-.65.08-1.53-.06-1.41,1.05.15,1.28,1.19.84,1.87.85,4.4.02,8.81.12,13.19-.11,4.04-.21,7.83-1.41,11.16-3.85,4.73-3.48,6.46-8.31,5.9-13.91ZM554.16,316.55c-1.6,4.24-5.24,6.35-9.64,5.92-2.07-.21-3.33-1.16-3.32-3.4.02-3.48,0-6.97,0-10.45h-.02c0-3.19.11-6.38-.04-9.56-.1-2.14.99-2.79,2.82-2.95,4.91-.44,9.03,2.23,10.5,6.98,1.39,4.5,1.35,9.05-.32,13.46Z"/>
      <path class="cls-15" d="M903.33,306.32c-.69-5.52-3.83-9.31-9.24-10.97-7.13-2.18-14.48-.82-21.72-1.17-.48-.02-1.04.02-1.08.71-.04.75.41,1.08,1.09,1.11,2.18.08,2.91,1.35,2.89,3.35-.03,3.3,0,6.59,0,9.89,0,3.4-.02,6.79,0,10.19.01,1.8-.51,3.13-2.54,3.41-.63.09-1.52-.05-1.45,1.05.07,1.08.92.88,1.57.87,4.79-.02,9.6.14,14.38-.19,3.8-.26,7.41-1.53,10.51-3.93,4.73-3.66,6.31-8.64,5.6-14.31ZM895.09,316.28c-1.5,4.17-4.92,6.34-9.22,6.21-2.53-.07-3.92-1.09-3.87-3.8.07-3.3.02-6.6.02-9.89h-.01c0-3.2.1-6.4-.03-9.59-.1-2.25.96-3,3-3.1,5.24-.26,8.9,2.43,10.38,7.53,1.24,4.27,1.23,8.49-.26,12.65Z"/>
      <path class="cls-20" d="M738.5,323.01c-4.27-2.8-6.23-7.4-8.86-11.48-.68-1.06-.84-1.75.54-2.6,3.84-2.37,5.01-5.07,4.15-8.67-.83-3.49-3.71-5.71-8.01-5.96-2.59-.15-5.19-.03-7.79-.03v-.11c-2.6,0-5.2-.01-7.79.01-.54,0-1.28-.24-1.45.61-.18.95.43,1.21,1.22,1.25,2.11.1,2.63,1.53,2.63,3.28.02,6.69.02,13.39,0,20.08,0,1.7-.36,3.2-2.53,3.38-.64.05-1.47.11-1.36,1.18.12,1.12.99.8,1.6.8,3.7.03,7.39.03,11.09,0,.61,0,1.49.34,1.67-.73.17-1-.57-1.17-1.27-1.25-2.04-.23-2.59-1.53-2.56-3.36.02-1.6-.17-3.2-.04-4.79.08-1.02-.84-2.58.98-2.95,1.51-.3,2.31.74,3,1.96,1.42,2.52,2.83,5.05,4.44,7.45,1.84,2.75,6.69,4.5,9.84,3.77.39-.09.8-.09.94-.57.15-.52.1-.93-.42-1.27ZM727.75,304.32c-.57,3.25-3.39,5.51-6.5,5.35-1.14-.06-1.61-.48-1.58-1.61.04-1.69.01-3.37.01-5.06h.01c0-1.39-.06-2.78.01-4.17.13-2.45,1.31-3.26,3.73-2.64,3.11.79,4.99,4.33,4.32,8.13Z"/>
      <path class="cls-20" d="M315.44,293.57c-9.52-.08-16.48,6.6-16.53,15.87-.05,8.97,7.05,15.96,16.25,16,8.92.04,15.92-6.69,16.05-15.45.15-9.7-6.23-16.34-15.78-16.42ZM322,319.21c-2.62,4.97-8.54,5.56-12.09,1.21-2.96-3.62-3.47-7.97-3.42-12.42.03-2.69.24-5.41,1.59-7.84,1.42-2.54,3.27-4.63,6.46-4.62,3.29.02,5.65,1.67,7.15,4.57,1.64,3.17,2.17,6.59,2.24,10.46-.11,2.77-.45,5.83-1.93,8.63Z"/>
      <path class="cls-17" d="M195.98,373.69c-1.38-.65-1.45,1.37-1.97,2.26-3.03,5.2-6.15,10.32-11.73,13.23-3.06,1.59-4.01,1.1-3.9-2.26.29-8.64,3.35-16.12,9.86-21.98,1.01-.91,2.37-1.44,3.58-2.13.76-.43,2.48-.07,2.02-1.49-.45-1.4-1.19-3.06-3.31-2.84-1.29.14-2.58.25-3.87.27-.57,0-1.27-.07-1.59-.66-.76-1.44,1.5-5.25,3.26-5.5,2.3-.32,4.5-.92,6.33-2.43,2.2-1.82,2.18-4.75-.03-7.43-1.75-2.12-3.6-1.06-5.3.05-1.95,1.27-3.66,2.91-4.67,4.97-.95,1.94-2.23,2.48-4.21,2.26-1.91-.22-3.8.2-5.58.85-5.33,1.93-7.24,8.34-3.31,12.22.32-1.02.54-1.78.78-2.53,1.15-3.56,3.37-5.94,7.06-7.09,2.12-.66,3.03-.58,2.85,1.96-.12,1.64.81,3.11,1.96,4.23,1.21,1.18.75,1.92-.25,2.8-1.82,1.6-3.2,3.58-4.31,5.7-2.61,4.99-4.64,10.2-4.22,15.96.22,3.04,1.06,6.31,4.01,7.58,2.83,1.22,5.27-.93,7.47-2.72,3.96-3.22,6.55-7.46,8.86-11.91.58-1.12,1.7-2.66.2-3.36ZM192.28,346.53c.66-.42,1.51-1.48,2.23-.41.43.64-.33,1.51-1,1.93-1.13.7-2.2,1.64-3.98,1.39.64-1.5,1.7-2.24,2.76-2.91Z"/>
      <path class="cls-17" d="M449.93,373.67c-1.55-.68-1.43,1.4-1.95,2.26-3.12,5.25-6.27,10.48-11.96,13.39-2.77,1.41-3.49.95-3.65-2.12-.44-8.19,5.9-23.01,14.56-24.7,1.27-.25,1.11-1,.61-1.97-1.24-2.39-3.18-2.36-5.19-1.68-1.2-.18-2.48.31-3.15-.86-.8-1.41,1.22-5.18,2.87-5.39,2.52-.31,4.9-.98,6.83-2.69,1.77-1.57,1.61-4.59-.22-7.05-1.56-2.09-3.29-1.34-4.99-.29-2.16,1.33-4,3.05-5.12,5.33-.82,1.66-1.88,2.31-3.73,2.11-2.31-.25-4.58.18-6.7,1.16-4.16,1.93-6.43,7.44-4.26,10.3.4.52.71,1.35,1.55,1.18.74-.15.51-.96.67-1.5,1.11-3.77,3.25-6.47,7.2-7.68,2.11-.65,3.14-.62,2.92,1.99-.12,1.43.65,2.79,1.62,3.75,1.59,1.56.84,2.32-.37,3.72-5.53,6.41-8.86,13.77-7.81,22.43.82,6.78,5.27,8.4,10.62,4.15,4.23-3.36,7.18-7.71,9.51-12.51.51-1.05,1.87-2.58.15-3.34ZM448.54,345.51c-.6,2.78-1.68,3.59-5.42,4.03,1.48-1.97,3.01-3.51,5.42-4.03Z"/>
      <path class="cls-17" d="M555.87,373.06c-1.19,1.65-1.57,3.62-3.48,5.42,1.08-4.9,1.91-9.19,3-13.41.62-2.38-.17-3.93-2.24-5.54-.82,2.46-1.25,4.92-4.28,6.46,1.57-4.76,3.62-8.63,4.66-12.85.41-1.68.64-3.35-.24-4.94-1.3-2.34-2.77-2.42-4.18-.14-2.97,4.79-3.68,10.12-2.87,15.54.3,2.04.05,3.48-1.25,5.17-.37-2.76-.73-5.23-2.72-7.05-1.14-1.04-2.36-1.6-3.65-.28-4.73,4.87-6.21,10.79-5.07,17.3.36,2.05,1.41,4.49,3.9,4.81,2.42.31,3.61-1.82,4.58-3.68,1.62-3.07,3.23-6.17,4.57-9.36.87-2.08,1.77-3.56,4.45-2.57-.4,2.08-.89,4.21-1.19,6.36-.32,2.34-1.02,4.74.32,7,.58.98,1.36,2.08,2.54.9,2.08-2.07,3.25-4.75,4.25-7.45.27-.72-.32-1.39-1.09-1.69ZM551.85,351.76c-.24,2.62-1.2,5-2.8,8.1.22-3.52,1.29-5.88,2.8-8.1ZM539.25,380.15c-.71.68-1.4,1.73-2.42,1.51-1.26-.27-.91-1.59-.92-2.51,0-1.04-.29-2.16.5-3.28.91.8,1.68,1.7,2.65,2.27,1.15.69.97,1.26.19,2.01ZM542.14,374.76c-.4,1.11-1.37,2.3-2.67,1.86-1.66-.56-1.09-2.3-1.24-3.61-.06-2.92,1.03-5.4,2.79-7.63.43-.55,1.01-1.1,1.76-.86.65.21.58.97.64,1.53.3,3.01-.28,5.91-1.28,8.71Z"/>
      <path class="cls-17" d="M505.13,361.47c-1.89-3.22-3.3-3.38-5.43-.27-1.49,2.18-2.62,4.6-4.06,7.18-.29-3.44,2.2-7.29-2.23-9.6-2.48,15.31-6.62,30.13-9.94,45.14-.63,2.82.28,4.44,2.38,6.02,2.31-9.72,4.58-19.24,6.91-29.03,4.83,4.91,6.75,4.63,9.71-1.17,2.1-4.11,3.35-8.5,3.76-13.11.16-1.82-.16-3.56-1.1-5.18ZM497.14,379.39c-.53.62-1.15,1.63-2.21,1.02-.8-.46-.71-1.48-.53-2.18,1.63-6.16,4.4-11.75,8.53-16.69-.28,6.53-1.44,12.75-5.79,17.85Z"/>
      <path class="cls-17" d="M251.29,361.6c-1.84-3.36-3.48-3.52-5.6-.29-1.56,2.39-2.78,5-4.18,7.55-.21-3.38,2.45-7.15-2.09-10.23-.46,2.99-.71,5.67-1.3,8.27-2.81,12.41-5.69,24.8-8.6,37.19-.61,2.57.1,4.39,2.43,5.77,2.32-9.74,4.59-19.29,6.96-29.23,4.29,5.18,6.54,4.98,9.41-.42,2.08-3.9,3.28-8.1,3.82-12.5.26-2.12.21-4.18-.84-6.11ZM243.83,378.71c-.61.92-1.46,2.35-2.78,1.72-1.01-.49-.78-2.06-.49-2.99,1.84-5.73,4.26-11.2,8.3-15.86.25,6.32-1.64,11.98-5.03,17.13Z"/>
      <path class="cls-29" d="M703.28,323.01c-4.14-.76-4.36-4.52-5.53-7.42-2.71-6.73-5.2-13.55-7.8-20.33-.26-.69-.26-1.64-1.4-1.64-1.04,0-1.68.44-2,1.43-.22.66-.51,1.29-.77,1.94-3,7.36-5.98,14.73-9.02,22.08-.68,1.65-1.42,3.35-3.56,3.66-.7.1-1.42.32-1.26,1.3.18,1.06,1.06.72,1.67.73,2.69.04,5.39.04,8.08,0,.69-.01,1.74.38,1.74-.95,0-1.08-.91-.84-1.53-.98-1.28-.3-2.62-.46-2.6-2.27.05-3.77,2.22-5.92,6.04-5.91,5.71.02,5.68.02,7.09,5.48.35,1.34.38,2.36-1.29,2.67-.59.11-1.16.29-1.09,1.12.09,1.11.92.84,1.55.85,1.8.04,3.59.01,5.39,0,1.9,0,3.79,0,5.69,0,.52,0,1.01-.11,1.05-.77.02-.39.06-.88-.45-.97ZM682.1,312.02c1.22-3.12,2.39-6.12,3.87-9.91,1.32,3.71,2.38,6.68,3.53,9.91h-7.39Z"/>
      <path class="cls-29" d="M484.73,322.88c-2.97-.39-3.61-2.9-4.45-5.08-2.83-7.33-5.53-14.72-8.34-22.06-.32-.84-.3-2.06-1.74-2.1-1.47-.04-1.73.98-2.16,2.03-3.17,7.85-6.37,15.67-9.56,23.51-.7,1.72-1.54,3.27-3.64,3.56-.77.11-1.35.43-1.14,1.36.19.84.9.64,1.44.64,2.8.02,5.6.02,8.39,0,.65,0,1.5.21,1.59-.85.09-1.07-.79-.95-1.42-1.1-1.25-.31-2.94-.48-2.53-2.24.48-2.06.55-5.02,2.59-5.67,2.44-.78,5.45-.65,7.98-.02,1.85.46,1.55,3.19,2.33,4.86.65,1.38.8,2.76-1.3,3.1-.69.11-1.05.56-.92,1.28.15.86.88.64,1.42.65,1.8.03,3.6.01,5.4.01v-.02c1.9,0,3.8,0,5.7,0,.53,0,.99-.1,1.06-.76.06-.55-.08-1.02-.7-1.1ZM463.93,312.14c1.24-3.33,2.42-6.49,3.77-10.09,1.29,3.62,2.41,6.76,3.6,10.09h-7.37Z"/>
      <path class="cls-20" d="M640.43,322.87c-2.67-.34-3.44-2.47-4.23-4.51-2.84-7.32-5.62-14.67-8.45-21.99-.39-1.02-.12-2.58-1.8-2.7-1.98-.14-2.01,1.63-2.5,2.82-3.02,7.36-5.98,14.75-8.97,22.12-.76,1.86-1.52,3.73-3.86,4.15-.58.11-1.17.33-1.12,1.13.07,1.08.91.86,1.55.87,2.79.02,5.59.03,8.38,0,.62,0,1.48.28,1.55-.84.07-1.1-.79-.92-1.42-1.07-1.35-.32-2.88-.4-2.74-2.44.28-4.09,2.07-5.77,6.22-5.77q5.32,0,6.75,5.04c.39,1.39.86,2.8-1.31,3.13-.7.11-1.02.57-.87,1.28.18.83.88.65,1.43.66,1.8.03,3.59,0,5.39.01,1.9,0,3.79,0,5.69,0,.63,0,1.19-.11,1.21-.94.01-.65-.4-.88-.91-.95ZM619.77,312.14c.96-3.21,2.06-6.18,3.75-9.7,1.32,3.59,2.41,6.57,3.56,9.7h-7.31Z"/>
      <path class="cls-17" d="M696.25,342.12c.74-2.9-.4-4.21-2.49-5.88-2.2,9.13-4.32,17.96-6.5,27-.5-.59-.87-1.02-1.24-1.46-2.78-3.28-3.91-3.15-5.64.68-2.16,4.8-2.92,9.92-3.32,15.09-.14,1.74.25,3.57,1.41,5.09,1.19,1.55,2.3,1.89,3.39-.06,1.02-1.82,2.02-3.64,3.46-6.23-.27,2.3-.09,3.68.6,4.94,1.33,2.45,2.77,2.64,4.43.39,1.36-1.83,2.38-3.9,3.63-5.82.88-1.34.22-2.06-.81-2.82-1.68,2.24-2.53,4.88-4.97,7.32.11-1.43.13-2.23.24-3.01,1.77-11.93,4.82-23.58,7.8-35.23ZM680.21,380.86c-.12-6.77,2.41-15.05,5.29-17.32,1.39,3.24-1.24,11.86-5.29,17.32Z"/>
      <path class="cls-17" d="M901.52,373.57c-.78-.26-.88.56-1.16,1.05-.78,1.31-1.08,2.93-2.45,3.86.28-4.73,1.19-9.33,2.38-13.85.71-2.7-.31-4.3-2.49-5.7-.78,2.65-1.42,5.21-4.61,6.86,1.66-4.48,3.19-8.44,4.6-12.44.74-2.07,1.31-4.23.38-6.41-.44-1.03-1.12-2.01-2.25-2.25-1.34-.29-1.93.91-2.46,1.82-2.8,4.81-4.03,10.11-3.14,15.53.49,3-.17,5.35-1.44,7.81-.32.62-.53,1.3-.88,1.9-.65,1.11-1.24,2.5.24,3.04,1.23.45,1.03-1.33,1.58-2.04,1.59-2.07.93-6.71,5.79-4.89-.46,3.17-.97,6.42-1.4,9.68-.24,1.81-.16,3.63,1.1,5.12.57.68,1.4,1.55,2.25.63,2.18-2.38,3.61-5.24,4.74-8.24.23-.6-.21-1.28-.78-1.47ZM896.46,350.19c-.24,3.59-1.66,6.01-2.85,8.55.19-2.8.82-5.5,2.85-8.55Z"/>
      <path class="cls-17" d="M295.82,373.64c-1.05-.55-.92.63-1.29,1.08-.83,1.01-.91,2.53-2.41,3.5.54-4.68,1.07-9.02,2.35-13.23.79-2.6.12-4.61-2.43-6.03-.87,2.56-1.37,5.2-4.72,6.73,1.54-3.85,2.85-6.95,4-10.11.81-2.24,1.68-4.49,1.48-6.96-.14-1.72-.89-3.34-2.43-3.83-1.78-.56-2.53,1.25-3.18,2.53-2.19,4.27-3.53,8.94-2.67,13.59.72,3.92-.5,6.97-2.01,10.2-.17.36-.36.71-.56,1.05-.78,1.35-.33,2.25,1.07,2.87.84-1.82,2.02-3.55,2.43-5.45.52-2.43,2.23-2.32,3.66-1.92,1.62.46.44,1.93.29,2.92-.52,3.36-1.01,6.72-.71,10.13.11,1.3.82,2.4,1.98,2.78,1.34.45,1.89-.9,2.42-1.78,1.18-1.96,2.22-4,3.31-6.02.46-.85.22-1.65-.56-2.06ZM290.73,350.41c-.53,3.09-1.51,5.96-3.32,9.31.48-3.85,1.46-6.76,3.32-9.31Z"/>
      <path class="cls-10" d="M836.23,366.52c-.22-2.19-1-4.26-2.64-5.87-1.51-1.49-2.9-1.33-4.37.19-3.8,3.93-5.27,8.72-5.44,15.2-.11,1.3.32,3.61,1.66,5.71,1.99,3.13,4.43,3.3,6.6.27,3.3-4.62,4.76-9.82,4.19-15.49ZM830.12,380.67c-.62.75-1.48,1.69-2.48,1.42-1.24-.33-.74-1.69-.8-2.59-.13-1.89.04-3.78.93-6.46.8,1.23,1.33,2.04,1.85,2.85-1.36-4.33.27-7.75,2.44-11.03.43-.66,1.04-1.38,1.92-1.21,1.09.22.76,1.3.78,1.99.12,5.51-1.05,10.67-4.64,15.04Z"/>
      <path class="cls-2" d="M394.06,373.15c-1.27,1.9-2.47,3.82-3.79,5.65-.78,1.09-2.06,2.99-3.05,2.14-1.32-1.13-.6-3.29.26-4.9.22-.41.79-.61,1.11-.98,2.72-3.08,5.15-6.33,5.64-10.59.22-1.9-.63-3.39-2.32-4.13-1.83-.81-3.13.46-3.98,1.8-3.22,5.11-4.77,10.67-3.88,16.73.14.93.68,1.88,1.25,2.65,1.74,2.37,3.32,2.47,5.41.39,1.77-1.77,3.02-3.93,4.16-6.14.62-1.19.44-2.08-.81-2.62ZM392.17,364.5c-.39,2.79-1.83,5.03-4.06,7.6.65-3.38,1.87-5.73,4.06-7.6Z"/>
      <path class="cls-2" d="M575.67,373.36c-.87-.46-.89.52-1.17.92-1.01,1.47-1.9,3.04-2.95,4.49-.79,1.09-2.12,3.01-3.04,2.22-1.32-1.13-.59-3.29.24-4.9.26-.5.9-.78,1.29-1.23,2.5-2.88,4.71-5.94,5.38-9.8.36-2.06-.28-3.94-2.28-4.72-2.07-.81-3.38.76-4.35,2.31-2.49,3.97-3.47,8.42-3.85,13.33.11,2.23.34,4.69,2.45,6.51,1.11.96,2.28,1.29,3.5.34,2.58-2.02,4.13-4.82,5.5-7.71.36-.76-.09-1.41-.73-1.74ZM573.42,364.56c-.4,2.78-1.85,5.01-4.15,7.61.83-3.35,1.84-5.81,4.15-7.61Z"/>
      <path class="cls-10" d="M272.78,373.21c-1.13.62-1.37,1.9-2.03,2.87-1.13,1.64-2.2,3.33-3.77,4.59-.54.43-1.54,1.18-1.63-.27-.11-1.8-.43-3.58,1.4-5.14,3.09-2.62,5.01-6.13,5.94-10.12.49-2.13-.34-3.86-2.18-4.76-1.9-.92-3.25.45-4.19,1.93-3.06,4.86-4.37,10.22-3.95,15.93.13,1.84,1.21,3.37,2.67,4.51.7.55,1.55,1.01,2.47.39,3.09-2.08,4.98-5.06,6.16-8.51.2-.59-.32-1.1-.89-1.44ZM271.09,363.88c-.62,3.27-2.16,5.76-4.71,8.5,1.04-3.55,1.89-6.4,4.71-8.5Z"/>
      <path class="cls-10" d="M331.16,373.33c-.68-.24-.87.58-1.18,1.04-1.04,1.58-2,3.22-3.13,4.73-.74.98-1.61,2.6-2.97,1.88-.97-.51-.29-2.2-.3-3.37-.01-1.04.72-1.54,1.4-2.16,2.94-2.69,4.85-6.04,6-9.83.67-2.22-.1-4.09-1.99-5.15-2.06-1.15-3.36.47-4.4,1.98-2.73,3.98-3.74,8.52-4.07,13.24-.14,2.07.21,4.05,1.48,5.67.94,1.19,2,2.84,3.92,1.68,3.04-1.84,4.63-4.86,6.02-7.97.33-.73-.12-1.5-.79-1.74ZM329.47,363.77c-.88,3.55-2.43,5.97-4.88,8.8,1.04-3.57,1.97-6.31,4.88-8.8Z"/>
      <path class="cls-10" d="M878.23,372.83c-1.52,2.3-2.73,4.24-4.06,6.09-.78,1.09-1.78,2.85-3.15,2.02-1.05-.64-.32-2.58-.13-3.94.12-.87.95-1.23,1.49-1.79,2.76-2.83,4.81-6.1,5.82-9.94.54-2.07-.27-3.86-2.09-4.84-1.93-1.03-3.24.4-4.2,1.83-3.02,4.52-4.36,9.58-4.19,14.97.08,2.58,1.07,5.21,3.75,5.94,2.74.75,3.96-1.89,5.09-3.75,1.12-1.85,3.82-3.51,1.67-6.6ZM876.53,363.86c-.57,3.3-2.24,5.66-4.3,7.84.64-2.92,1.61-5.67,4.3-7.84Z"/>
      <path class="cls-14" d="M275.8,166.36c1-4.19.32-7.03-2.27-8.62.16,9.7-3.74,15.86-11.13,17.31.17-.53.23-1.03.46-1.42,3.8-6.49,6.03-13.67,9.16-20.45,3.06-6.63,3.16-13.04-.62-19.41-1.12-1.88-2.27-2.08-3.72-.41-1.11,1.28-2.38,2.45-3.35,3.84-2.66,3.82-4.15,7.94-2.66,12.66,1.02,3.23,2.41,6.33,3.17,9.65.46,2,.07,3.68-1.07,5.42-.6-1.98-1.03-3.83-1.74-5.56-.51-1.25-1.49-3.17-2.74-2.65-1.56.65-.31,2.41.09,3.65.21.66.6,1.27.82,1.93,1.1,3.41,1.15,6.72-.96,10.25-.49-.94-.81-1.53-1.11-2.13-.44-.89-.91-2.12-2.03-1.73-.91.32-.47,1.59-.41,2.44.5,6.82.36,7.23-6.01,9.65-4.09,1.56-8.29,2.84-12.48,4.11-.85.26-2.33.95-2.52-.95-.44-4.31,1.17-7.24,5.29-8.96,5.04-2.11,8.62-5.67,11.13-10.4,1.67-3.14,2.59-6.48,2.14-10.08-.27-2.19-1.01-3.57-3.71-2.56-2.44.92-4.92,1.73-7.07,3.2-3.99,2.72-7.06,6.08-7.71,11.2-.28,2.2,1.19,4.25.35,6.4-8.02-3.01-15.13,2.39-23.6,2.73,1.57-1.22,2.4-1.91,3.28-2.53,6.87-4.86,13.18-10.35,18.54-16.85,8.2-9.95,14.3-20.88,15.27-34.1.08-1.04.57-2.96.81-2.95,2.82.1,1.31-1.93,1.25-2.76-.16-1.96-.77-3.89-1.2-5.84-.1-.46-.44-1.27.06-1.3,2.04-.11,1.13-1.27.95-2.23-.7-3.72-3.59-7.2-.2-11.3,1.34-1.62.92-4.61,2.16-6.74.18-.32-.02-.98-.23-1.38-1.1-2.1-.03-3.11,1.78-3.9,3.48-1.51,6.95-3.03,10.37-4.65,1.34-.64,2.99-1,3.69-2.72-2.38-.74-4.64-.94-6.91-1.21-2.41-.28-4.77-.42-7.14.06-1.49.3-2.41-.46-3.27-1.58-7.87-10.28-20.92-13.27-32.83-10.22-11.14,2.85-19.83,8.95-25.65,18.97-.79,1.36-1.71,2.56-2,4.26-.4,2.31-1.97,2.71-3.75,1.18-.91-.78-1.7-1.69-2.52-2.56-12.86-13.69-26.25-26.84-40.66-38.91-18.06-15.12-36.25-30.07-54.39-45.09-.59-.49-1.18-1.44-1.98-1.04-.96.49-.5,1.66-.37,2.45.77,4.79,2.71,9.16,5.15,13.31.53.91,1.1,1.76,1.23,3.55-5.01-3.62-9.52-6.88-14.03-10.14-.7-.5-1.36-1.58-2.28-.89-.77.58-.36,1.67-.15,2.54.78,3.23,2.07,6.23,3.88,9.03.84,1.3,2.04,2.42,2.39,4.08-1.82.67-3.42-.22-5.07-.31-1.02-.05-2.3-.65-2.97.63-.53,1.02.11,1.93.7,2.75.81,1.13,1.66,2.24,2.5,3.36,1.95,2.59,4.28,4.85,7.51,7.49-2.89-.21-4.81-.42-6.73-.47-2.49-.07-3.08.89-1.87,3.08,1.95,3.56,4.64,6.47,7.98,8.79.92.64,2.06,1.08,2.76,2.53-1.32,0-2.3-.07-3.27.01-1.83.15-4.38-.77-5.22,1.18-.87,2,1.39,3.46,2.61,4.97,1.91,2.37,4.75,3.69,7.21,5.91-1.11.38-1.85.66-2.6.88-3.08.92-3.64,2.28-1.8,4.89,1.7,2.42,4.04,4.11,6.67,5.44,1.06.54,2.47.79,2.86,2.29-2.26.66-5.4.12-5.92,2.83-.48,2.54,2.04,4.08,3.95,5.52.63.48,1.31.9,1.99,1.31,1.6.97,3.51,1.42,4.99,2.91-.67.42-1.23.82-1.84,1.14-3.7,1.99-3.96,3.55-1.18,6.67,2.25,2.52,5.32,3.4,8.4,4.27.84.24,2.02.1,2.3,1.09.27.93-.89,1.18-1.43,1.71-2.58,2.53-2.53,3.99.24,6.41,2.17,1.9,4.89,2.61,7.55,3.38,1.44.42,2.04.84.66,2.05-3.07,2.69-2.18,6.83,2.74,8.29,2.27.67,4.64,1.03,6.97,1.54.15.85-.43,1.49-.71,2.22-1.34,3.57-.18,5.7,3.53,6.66,1.49.38,2.95.52,4.43.09,2.08-.59,3.09-.33,2.38,2.24-.97,3.5,1.3,5.84,4.92,5.18,1.17-.21,2.28-.73,3.44-1.01,1.3-.31,1.99-.23,1.7,1.61-.58,3.66,1.03,4.97,4.66,4.14,1.69-.39,3.24-1.37,5.44-1.35-3.64,6.25-8.76,10.98-12.69,16.51,1.1.92,2.07-.47,2.92.84-2.23,2.48-4.51,4.97-6.72,7.51-.4.45-1.59,1.42-.3,1.71,3.39.78.44,1.88.07,2.26-9.8,10.11-20.35,19.43-30.46,29.22-7.67,7.43-15.74,14.49-22.14,23.13-2.38,3.21-4.59,6.54-5.54,10.52-.42,1.77-.11,3.36,1.21,4.7,1.37,1.39,2.94,1,4.47.43,2.07-.77,3.95-1.89,5.7-3.26.61-.47,1.2-1.39,2-1.1,1.07.39.61,1.54.69,2.39.27,3.01,1.95,3.98,4.7,2.63,2-.98,3.66-2.41,5.1-4.1.44-.52.85-1.25,1.66-1.02.74.21.46.99.59,1.53.87,3.43,2.65,4.21,5.71,2.43,2.37-1.38,4.22-3.39,5.86-5.52,7.9-10.29,15.64-20.69,23.59-30.94,2.81-3.62,5.2-7.63,8.93-10.72.26,1.43-1.04,2.36-.47,3.76,3.37-1.74,6.66-3.42,9.93-5.12.62-.32,1.48-1.04,1.9-.61,2.66,2.73,4.82.07,7.02-.66,2.19-.73,4.23-1.03,6.38-.17,2.59,1.04,5.19,2.06,7.73,3.2,1.85.83,3.88,1.4,5.7,3.03-3.42,1.15-6.44,2.55-9.6,3.11-3.16.56-4.14,3.75-6.97,4.66-6.91,2.21-13.73,4.72-20.58,7.13-5.81,2.04-11.4,4.55-16.52,8.04,13.36-5.67,27.06-10.26,41.13-13.79-3.19,2.71-7.24,3.4-10.94,4.88-.62.25-1.42.15-1.74.86-.11.25.09.93.31,1.01,2.04.8,1.39,2.81,2.37,4.33-2.23-.42-3.17-1.97-4.22-3.23-1.31-1.58-2.73-1.87-4.5-1.15-6.74,2.74-13.62,5.19-19.99,8.78-4.55,2.56-9.07,5.2-12.57,9.26,9.2-5.34,18.11-11.24,28.63-13.9-16.96,7.15-31.43,17.53-42.27,32.72-.18-.21-.36-.42-.54-.63,1.34-1.98,2.68-3.96,4.02-5.95-3.73,2.75-6.82,6.01-9.62,9.53-2.71,3.41-5.27,6.92-7.9,10.39,2.37-6.06,6.82-10.82,10.22-16.87-2.07.81-2.95,2.06-3.86,3.16-4.54,5.45-8.88,11.05-12.36,17.25-2.3,4.09-4.46,8.25-5.66,12.84-.49,1.88-.29,3.28,1.91,3.91,2.59.73,5.09,1.76,7.68,2.49,5.18,1.45,5.19,1.4,6.96-3.44.24-.66.5-1.3.76-1.95,7.32-18.57,18.47-34.23,35.35-45.28,8.34-5.46,17.07-10.32,25.58-15.53,11.32-6.92,22.59-13.92,33.88-20.89,0,0,0,0,0,0h0c-.33-2.5-3.11-2.1-4.26-3.62h0,0c-4.85-2.4-9.91-4.41-14.38-7.59,5.67,1.7,11.23,3.66,16.28,6.86,3.02,3.34,3.83,3.53,6.18,1.39-.15-.13-.27-.29-.44-.39-.82-.45-2.1.03-2.52-1.2-.06-.19.13-.64.3-.71,1.16-.44,2.12.17,3.03.77.57.38.99,1,1.77.96h0c.11-.16.2-.42.34-.45.15-.04.26-.09.34-.15.04-.05.08-.09.12-.14.4-.69-1.31-2.21.61-2.38,1.16-.1,2.23.8,3.39.16.49-.75,1.67-.68,2.04-1.78-2.99-.67-5.73-1.29-8.95-.36-5.17,1.48-9.55-1.36-14.24-4.15,4.66-1.56,8.94-3,13.23-4.41.34-.11.91-.09,1.14.12,3.13,2.91,6.21.82,9.2-.18,3.49-1.16,6.86-2.68,10.33-3.89,1.21-.42,2.84-1.79,3.75-.51.83,1.18-.87,2.44-1.56,3.6-.61,1.02-1.4,1.94-2.09,2.91-1.35,1.88.71.68,1.1.87-1.48,2.9-4.89,1.28-6.6,3.3-.42.5-2.21.68-.12,1.49.6.24-.21.78-.54,1.01-1.79,1.25-3.6,2.45-5.41,3.67,0,0,0,0,0,0-1.21,1.52.67,3.23-.33,4.8-1.66-1.36-1.64-3.04-.95-4.86v-.02s0,0,0,0h0c-.6-.33-1.23-.92-1.89-.39-.7.56.13.97.33,1.46.76,1.9-1.4,1.66-1.97,2.6h0c.11.57.91,1.76-.2,1.55-3.82-.72-3.29,1.44-2.84,3.74.09.47.01.97.01,1.54-1.85-.49-1.37-2.43-2.45-3.26h0c-3.08,2.24-6.16,4.49-9.93,7.24,2.85-.94,4.89-1.61,7.3-2.41-.79,1.52-3.15.97-2.52,2.69.53,1.42,2.07,2.08,3.71,2.04.2,0,.4-.03.6-.05,5.49-.59,9.14-4.44,13.22-7.49.41-.31.69-1.05.71-1.6.07-1.92,1.34-2.45,2.9-2.85,4.25-1.08,8.52-1.99,12.84-2.75,2.87-.5,4.26.13,4.86,3.06,2.44,12.08,12.41,14,20.52,14.58,1.52.11,2.17-.58,2.08-2.15-.45-8.2-7.67-16.79-15.62-18.94-2.72-.73-5.64-.51-8.61-1.92,1.77-.6,3.22-.99,4.58-1.58,7.75-3.39,15.11-3.13,22.55,1.33,5.39,3.23,11.25,4.57,17.15.42,2.2-1.54,2.49-2.84.72-4.74-4.16-4.47-9.32-5.87-15.23-4.99-2,.3-3.96.92-6.08.57,3.67-1.78,7.48-3.19,11.11-4.96,5.33-2.58,9.96-5.92,11.45-12.2ZM268.05,154.02c-1.54-1.91-1.48-2.29.67-3.97.39,1.65-.09,2.8-.67,3.97ZM269.53,144.06c.43-.18.6.48.42.83-.26.52-.6,1.03-1.02,1.43-.53.5-1.13.3-1.57-.2-.93-1.07-1.19-2.39-1.57-3.85,1.66.24,1.86,2.58,3.74,1.79ZM247.41,163.1c-.94,1.33-2.32,1.83-4.39,2.29,1.19-2.09,2.82-2.11,4.39-2.29ZM134.59,188.87c-9.69,11.13-19.65,21.99-30.64,31.9,9.03-11.77,19.96-21.71,30.64-31.9ZM90.42,229.55c12.05-14.8,26.17-27.6,40.22-40.46-12.65,14.21-25.31,28.42-40.22,40.46ZM114.46,227.28c5.36-7.82,11.15-15.3,17.94-21.96-5.19,7.96-11.57,14.96-17.94,21.96ZM100.21,231.57c12.29-15.2,26.32-28.78,39.96-42.71-12.76,14.77-25.73,29.33-39.96,42.71ZM177.6,190c-.02.16-.07.09,0,0h0ZM253.97,78.45c-3.43,1.89-7.21,2.6-11.01,3.25,3.28-2.38,6.88-3.72,11.01-3.25ZM214.46,71.55c-1.16-1.15-2.17.54-3.22,0,4.75-5.66,22.29-7.45,27.95-.8-1.5-.04-2.64-1.18-4.14-.61.68,1.32,2.58,1.5,2.96,3.63-10.23-4.51-19.77-2.44-29.24,1.43,1.57-1.8,3.7-2.57,5.69-3.66ZM223.64,85.32c2.38-.14,3.89-1.71,5.52-3.83,0,3.58-2.68,5.94-6,5.7-3.31-.24-4.91-2.13-4.54-5.57,1.98.89,2.45,3.85,5.02,3.7ZM219.52,78.51c2.26-1.79,4.41-2.18,6.98.07-2.69.68-4.87-.79-6.98-.07ZM109,25c3.3,1.76,5.71,4.35,8.42,6.5,23.23,18.45,45.01,38.52,66.07,59.39,3.11,3.08,6.26,6.16,9.87,8.69,5.55,3.9,11.62,5.56,18.39,3.99.14,1.9-3.06.24-2.8,2.92.12,1.19-2.78,1.26-4.35,1.76-1.77.57.82.93.11,1.62-1.37.03-2.6-.63-3.91-1.05-.53-.17-1.81-2.31-1.86.38-1.4-.08-2.26-1.12-3.26-1.87-12.25-9.26-22.34-20.77-32.85-31.82-15.32-16.12-31.92-30.67-50.76-42.59-3.8-2.4-7.6-4.8-10.62-8.21-1.12-1.26-2.15-2.53-2.65-4.66,4.05,2.66,7.36,5.63,11.34,7.73.36-1.31-.97-1.56-1.13-2.78ZM175.51,133.78c.6.47.06.86-.15,1.21-2.02,3.34-5.17,4.94-9.08,5.55,3.05-4.08,6.11-8.15,9.48-12.66-.02,1.92-.5,3.09-1,4.27-.33.8-.32.8.74,1.63ZM171.54,109.44c4.3-1.51,8.52-3.23,13.06-3.82.57-.07,1.21-.48,1.42.38.06.26-.25.78-.53.92-4.4,2.14-9.07,2.84-13.94,2.52ZM144.21,67.45c-3.45.96-6.45-.29-8.5-3.45,2.94,1.19,5.52,2.24,8.5,3.45ZM132.65,54.74c2.89,1.46,5.03,2.75,7.33,4.94-3.41-.5-5.36-2.08-7.33-4.94ZM146.51,74.25c.28.03.76.52.74.76-.04.49-.49.86-1.02.9-2.52.2-4.54-.69-6.24-2.92,2.47-.19,4.39,1.07,6.51,1.26ZM151.23,81.39c.91.09.9.8.84,1.56-.09,1.01-.83.76-1.29.64-1.96-.51-4.14-.51-5.82-2.55,2.31-.73,4.28.16,6.27.36ZM150.78,87.89c5.07,0,10.14,0,15.2,0,.8,0,1.6-.02,2.39.1.92.14,1.95.63,1.88,1.59-.08,1.1-1.26.68-1.96.67-1.39-.02-2.77-.29-4.16-.32-2.51-.05-4.94-.93-7.58.18-1.87.79-4.08.06-5.83-1.25.02-.32.04-.65.05-.97ZM153.35,72.67c2.23.78,4.34,1.7,6.48,3.72-3.34-.05-5.64-.66-6.48-3.72ZM165.27,83.91c-3.04-1.13-5.89-.13-7.69-2.61,2.82-.96,4.9-.36,7.69,2.61ZM175.93,95.6c-6.24.39-12.46,2.48-18.7.26,6.23-.46,12.44-2.24,18.7-.26ZM180.32,101.25c-3.24,1.9-12.5,2.87-17.01,1.92,3.09-1.98,14.16-3.23,17.01-1.92ZM191.89,110.01c-4.02,3.75-8.28,4.6-12.64,5.16,3.63-2.38,7.52-4.1,12.64-5.16ZM195.91,114.49c-1.77,2.75-4.64,3.61-7.5,4.47,1.97-2.41,4.76-3.39,7.5-4.47ZM88.72,28.4c11.3,4.96,22.24,10.26,32.67,16.53.51.31,1,.66,1.52.95,1.37.76-1.01,1.9.29,2.65-.54.6-1.07.16-1.57-.05-11.18-4.63-22.12-9.68-31.09-18.11-.65-.61-1.22-1.31-1.83-1.97ZM90.53,44.33c11.06,3.07,22.06,6.3,32.27,11.52-.24.97-4.62-.35,1,2.68-13.12-3.25-23.79-7.32-33.28-14.21ZM91.73,57.13c10.45,1.51,20.77,3.48,30.76,6.96,1.4.49.44,2.31,1.93,2.67-11.66-.89-22.47-4.28-32.69-9.63ZM94.69,69.41c10.8.25,21.44,1.73,32.1,3.04.63.08,1.63-.04,1.9.97-1.76.03.84,2.52-1.56,2.5-11.25-.08-22.06-2.17-32.44-6.52ZM99.64,82.28c11.2-1.32,22.42-1.24,33.67-.36-.06.77-.61.87-1.04,1.03-.45.17-.94.23-2.1.49,1.52.18,2.35.27,3.18.37l-.06.83c-11.33,1.81-22.52.66-33.65-2.37ZM105.17,94.14c11.18-1.33,22.29-3.58,33.65-4.3-.17,1.24-1.45,1.09-1.99,1.99.62.14,1.21.27,1.84.41-7.5,4.39-28.02,4.53-33.5,1.9ZM112.16,106.18c10.51-2.87,21.03-5.75,31.81-8.69-3.33,4.31-7.27,6.8-12.36,7.97-6.45,1.48-12.86,1.95-19.45.72ZM121.1,117.87c9.48-4.44,18.97-8.87,28.99-13.56-2.2,2.99-5.08,4.44-7.51,6.36.49.89,1.22-.33,1.71.59-6.82,5.08-14.55,7.15-23.19,6.61ZM130.35,128.47c7.53-6.49,16.69-10.63,24.45-16.9-.89,2.78-3.19,4.42-5.13,6.34-.54.53-1.54.72.02,1.37.71.29-.26.92-.66,1.24-5.52,4.25-11.65,7.08-18.68,7.95ZM141.09,136.32c6.54-7.03,14.4-12.63,20.68-19.83-.48,2.22-1.73,3.88-2.78,5.68-1.01,1.71-3.94,2.54-2.73,5.45.1.25-.86,1-1.39,1.46-4.01,3.47-8.41,6.24-13.78,7.25ZM153.26,140.28c5.31-5.67,10.37-11.48,14.98-17.72-.11,2.22-1.26,3.97-2.14,5.85-.8,1.7-3.2,2.82-2,5.39.15.33-1,1.39-1.67,1.97-2.62,2.26-5.38,4.29-9.18,4.52ZM203.93,159.77c1.74-3.2,4.56-5.62,5.88-9.16-10.53,10.56-21.44,20.55-36.54,24.24,1.48-.79,2.94-1.61,4.44-2.35,1.52-.75,3.12-1.36,4.61-2.16,7.79-4.19,14.93-9.27,20.62-16.09,6.77-8.11,13.76-16.06,19.84-24.72,3.58-5.09,6-10.75,6.22-17.2-5.29,15.11-14.42,27.63-25.83,38.55-11.57,11.08-25.28,17.76-41.36,19.26,11.14-4.64,22.73-8.39,32.27-16.24-6.65,2.88-13.03,6.51-20.57,6.44,10.59-5.25,21.53-9.9,30.4-18.11-9.83,5.23-18.92,12.36-31,11.46,19.71-6.4,35.63-17.54,46-35.78-8.25,8.87-14.64,19.82-27.01,24.28,10.11-8.71,20.79-16.9,25.84-29.97-3.58,4.54-7,9.22-10.76,13.6-6.66,7.75-14.22,14.3-24.64,16.49-.57.12-1.15.14-1.84,0,13.78-6.47,25.87-14.81,32.96-28.86-4.79,4.47-8.39,10.38-15.17,12.48,10.44-8.23,16.53-20.08,25.08-29.87.35-.4.63-1.04.26-1.85-3.38,2.21-7.22,1.95-11,2.02-.61.01-2.66-1.49-3.03-2.38-.28-.67-.57-.2-.84-.15-.49.09-.97.24-1.45.37-.46.12-.93.23-1.55.39,2.16-3.21,5.18-4.91,8.19-4.11,5.9,1.57,10.97-.34,15.9-3.23.69-.4,1.34-.86,1.99-1.32,2.47-1.72,4.84-4.41,7.77-.47-.26.98-1.77.97-2.29,2.3.83.14,1.62.27,2.52.42-.63,2.53-3.03,3.97-3.91,6.87,1.51-1,2.66-1.77,3.82-2.54.11.11.23.21.34.32-1.1,1.68-2.2,3.36-3.82,5.83,1.83-1.21,2.92-1.93,4.39-2.9-.76,2.94-2.77,5-3,8.28,1.18-1.45,1.07-3.26,2.76-3.62.61.79-.51,3.05,1.89,2.27.85,2.61,2.88,4.78,2.95,7.73-1.27-.21-1.35-1.66-2.62-2.3.33,3.91,2.4,7.34,1.49,11.65-.79-2.34-1.44-4.24-2.08-6.14-.15,3.68.18,7.28-.3,11.61-1.64-3.25-.59-6.54-2.45-9.57-.68,3.88.25,7.49-1.35,10.75-.46-3.09-.02-6.23-1.52-9.33-1.5,12.45-6.35,23.39-14.53,32.84,1.15-3.42,3.6-6.3,4.59-10.74-5.2,6.35-8.78,12.98-15.06,17.36,1.13-2.01,2.25-4.01,3.38-6.02-3.72,3.08-6.59,6.99-10.85,9.38ZM242.58,201.3c-2.74-.08-4.51-.37-5.98-2.23,2.37-.41,3.92.54,5.98,2.23ZM225.27,175.82q2.84.23,2.54,3.3c-1.03-1.33-1.74-2.26-2.54-3.3ZM227.75,187.07c1.5-2.6,3.23-5.04,3.4-8.35,1.93,3.11.74,6.04-3.4,8.35ZM232.76,176.56c-1.2.29-2.02-.18-2.72-1.51,1.42-.34,2.47-.55,3.14.63.23.39.02.77-.42.88Z"/>
      <path class="cls-22" d="M214.91,184.9c-1.95,3.72-5.04,2.75-7.26,3.87-.11-.24-.21-.49-.32-.73,2.25-.93,4.51-1.87,7.58-3.14Z"/>
      <path class="cls-24" d="M199.69,187.72c-1.38,1.11-2.44,1-3.66.76.93-1.06,1.94-1.32,3.66-.76Z"/>
    </g>
  </g>
</svg>